# Blender 4.4.0
# www.blender.org
mtllib paddle.mtl
o Cube
v 1.000000 0.600000 -5.000000
v 0.500000 -0.600000 -5.000000
v 1.000000 0.600000 5.000000
v 0.500000 -0.600000 5.000000
v -1.000000 0.600000 -5.000000
v -0.500000 -0.600000 -5.000000
v -1.000000 0.600000 5.000000
v -0.500000 -0.600000 5.000000
v -1.500000 0.400000 7.000000
v -1.000000 1.600000 7.000000
v 1.000000 1.600000 7.000000
v 1.500000 0.400000 7.000000
v 1.543500 0.400000 -7.000000
v -1.543500 0.400000 -7.000000
v 1.000000 1.600000 -7.000000
v -1.000000 1.600000 -7.000000
vn -0.0000 1.0000 -0.0000
vn -0.9065 0.3777 -0.1888
vn -0.9231 -0.3846 -0.0000
vn -0.0000 -1.0000 -0.0000
vn 0.9231 -0.3846 -0.0000
vn -0.0000 -0.8944 -0.4472
vn -0.0000 -0.0000 1.0000
vn -0.0000 -0.8944 0.4472
vn -0.0000 0.8944 -0.4472
vn 0.8913 -0.3714 -0.2600
vn -0.0000 -0.0000 -1.0000
vn -0.0000 0.8944 0.4472
vn 0.8921 0.4041 0.2020
vn -0.8867 -0.3695 0.2779
vn -0.8913 -0.3714 -0.2600
vn 0.9065 0.3777 -0.1888
vn 0.8867 -0.3695 0.2779
vn -0.8921 0.4041 0.2020
vt 0.353552 0.352170
vt 0.423963 0.000114
vt 0.423963 0.352170
vt 0.310259 0.504263
vt 0.334688 0.572968
vt 0.289495 0.580197
vt 0.234152 0.157498
vt 0.353325 0.488771
vt 0.459397 0.000114
vt 0.424191 0.352170
vt 0.424191 0.000114
vt 0.000114 0.966496
vt 0.288262 0.759111
vt 0.031415 0.999886
vt 0.502913 0.424340
vt 0.424191 0.352397
vt 0.502913 0.389134
vt 0.273019 0.648654
vt 0.309974 0.675653
vt 0.459624 0.035319
vt 0.538346 0.105731
vt 0.459624 0.070525
vt 0.353552 0.509841
vt 0.423963 0.431119
vt 0.423963 0.509841
vt 0.256961 0.725721
vt 0.126013 0.128690
vt 0.075281 0.043664
vt 0.165466 0.104310
vt 0.353552 0.430892
vt 0.002010 0.045842
vt 0.067584 0.089398
vt 0.191087 0.172991
vt 0.353552 0.000114
vt 0.459397 0.352170
vt 0.424191 0.461077
vt 0.538346 0.000114
vt 0.353552 0.431119
vt 0.423963 0.430892
vt 0.000114 0.000114
s 0
usemtl Material
f 5/1/1 3/2/1 1/3/1
f 7/4/2 9/5/2 10/6/2
f 7/4/3 6/7/3 8/8/3
f 2/9/4 8/10/4 6/11/4
f 1/12/5 4/13/5 2/14/5
f 6/15/6 13/16/6 2/17/6
f 11/18/7 9/5/7 12/19/7
f 4/20/8 9/21/8 8/22/8
f 7/23/9 11/24/9 3/25/9
f 3/26/10 12/19/10 4/13/10
f 16/27/11 13/28/11 14/29/11
f 1/3/12 16/30/12 5/1/12
f 1/31/13 13/28/13 15/32/13
f 5/33/14 14/29/14 6/7/14
f 5/1/1 7/34/1 3/2/1
f 7/4/15 8/8/15 9/5/15
f 7/4/3 5/33/3 6/7/3
f 2/9/4 4/35/4 8/10/4
f 1/12/5 3/26/5 4/13/5
f 6/15/6 14/36/6 13/16/6
f 11/18/7 10/6/7 9/5/7
f 4/20/8 12/37/8 9/21/8
f 7/23/9 10/38/9 11/24/9
f 3/26/16 11/18/16 12/19/16
f 16/27/11 15/32/11 13/28/11
f 1/3/12 15/39/12 16/30/12
f 1/31/17 2/40/17 13/28/17
f 5/33/18 16/27/18 14/29/18
